<svg version="1.1" viewBox="0.0 0.0 600.0 371.0" fill="none" stroke="none" stroke-linecap="square" stroke-miterlimit="10" width="600" height="371" xmlns:xlink="http://www.w3.org/1999/xlink" xmlns="http://www.w3.org/2000/svg"><path fill="#ffffff" d="M0 0L600.0 0L600.0 371.0L0 371.0L0 0Z" fill-rule="nonzero"/><path stroke="#333333" stroke-width="1.0" stroke-linecap="butt" d="M66.5 332.5L581.5 332.5" fill-rule="nonzero"/><path stroke="#cccccc" stroke-width="1.0" stroke-linecap="butt" d="M66.5 262.5L581.5 262.5" fill-rule="nonzero"/><path stroke="#cccccc" stroke-width="1.0" stroke-linecap="butt" d="M66.5 192.5L581.5 192.5" fill-rule="nonzero"/><path stroke="#cccccc" stroke-width="1.0" stroke-linecap="butt" d="M66.5 122.5L581.5 122.5" fill-rule="nonzero"/><path stroke="#cccccc" stroke-width="1.0" stroke-linecap="butt" d="M66.5 51.5L581.5 51.5" fill-rule="nonzero"/><path stroke="#000000" stroke-width="1.0" stroke-linecap="butt" stroke-opacity="0.0" d="M66.5 309.5L581.5 309.5" fill-rule="nonzero"/><path stroke="#000000" stroke-width="1.0" stroke-linecap="butt" stroke-opacity="0.0" d="M66.5 285.5L581.5 285.5" fill-rule="nonzero"/><path stroke="#000000" stroke-width="1.0" stroke-linecap="butt" stroke-opacity="0.0" d="M66.5 238.5L581.5 238.5" fill-rule="nonzero"/><path stroke="#000000" stroke-width="1.0" stroke-linecap="butt" stroke-opacity="0.0" d="M66.5 215.5L581.5 215.5" fill-rule="nonzero"/><path stroke="#000000" stroke-width="1.0" stroke-linecap="butt" stroke-opacity="0.0" d="M66.5 168.5L581.5 168.5" fill-rule="nonzero"/><path stroke="#000000" stroke-width="1.0" stroke-linecap="butt" stroke-opacity="0.0" d="M66.5 145.5L581.5 145.5" fill-rule="nonzero"/><path stroke="#000000" stroke-width="1.0" stroke-linecap="butt" stroke-opacity="0.0" d="M66.5 98.5L581.5 98.5" fill-rule="nonzero"/><path stroke="#000000" stroke-width="1.0" stroke-linecap="butt" stroke-opacity="0.0" d="M66.5 75.5L581.5 75.5" fill-rule="nonzero"/><clipPath id="id_0"><path d="M66.55 51.916668L581.45 51.916668L581.45 332.45L66.55 332.45L66.55 51.916668Z" clip-rule="nonzero"/></clipPath><path stroke="#000000" stroke-width="2.0" stroke-linecap="butt" stroke-opacity="0.0" clip-path="url(#id_0)" d="M99.0 332.0L85.0 332.0L85.0 168.0C85.0 166.89543 85.89543 166.0 87.0 166.0L97.0 166.0C98.10457 166.0 99.0 166.89543 99.0 168.0Z" fill-rule="nonzero"/><path fill="#4285f4" clip-path="url(#id_0)" d="M99.0 332.0L85.0 332.0L85.0 168.0C85.0 166.89543 85.89543 166.0 87.0 166.0L97.0 166.0C98.10457 166.0 99.0 166.89543 99.0 168.0Z" fill-rule="nonzero"/><path stroke="#000000" stroke-width="2.0" stroke-linecap="butt" stroke-opacity="0.0" clip-path="url(#id_0)" d="M149.0 332.0L135.0 332.0L135.0 212.0C135.0 210.89543 135.89543 210.0 137.0 210.0L147.0 210.0C148.10457 210.0 149.0 210.89543 149.0 212.0Z" fill-rule="nonzero"/><path fill="#4285f4" clip-path="url(#id_0)" d="M149.0 332.0L135.0 332.0L135.0 212.0C135.0 210.89543 135.89543 210.0 137.0 210.0L147.0 210.0C148.10457 210.0 149.0 210.89543 149.0 212.0Z" fill-rule="nonzero"/><path stroke="#000000" stroke-width="2.0" stroke-linecap="butt" stroke-opacity="0.0" clip-path="url(#id_0)" d="M199.0 332.0L185.0 332.0L185.0 228.0C185.0 226.89543 185.89543 226.0 187.0 226.0L197.0 226.0C198.10457 226.0 199.0 226.89543 199.0 228.0Z" fill-rule="nonzero"/><path fill="#4285f4" clip-path="url(#id_0)" d="M199.0 332.0L185.0 332.0L185.0 228.0C185.0 226.89543 185.89543 226.0 187.0 226.0L197.0 226.0C198.10457 226.0 199.0 226.89543 199.0 228.0Z" fill-rule="nonzero"/><path stroke="#000000" stroke-width="2.0" stroke-linecap="butt" stroke-opacity="0.0" clip-path="url(#id_0)" d="M248.0 332.0L234.0 332.0L234.0 208.0C234.0 206.89543 234.89543 206.0 236.0 206.0L246.0 206.0C247.10457 206.0 248.0 206.89543 248.0 208.0Z" fill-rule="nonzero"/><path fill="#4285f4" clip-path="url(#id_0)" d="M248.0 332.0L234.0 332.0L234.0 208.0C234.0 206.89543 234.89543 206.0 236.0 206.0L246.0 206.0C247.10457 206.0 248.0 206.89543 248.0 208.0Z" fill-rule="nonzero"/><path stroke="#000000" stroke-width="2.0" stroke-linecap="butt" stroke-opacity="0.0" clip-path="url(#id_0)" d="M298.0 332.0L284.0 332.0L284.0 276.0C284.0 274.89542 284.89542 274.0 286.0 274.0L296.0 274.0C297.10458 274.0 298.0 274.89542 298.0 276.0Z" fill-rule="nonzero"/><path fill="#4285f4" clip-path="url(#id_0)" d="M298.0 332.0L284.0 332.0L284.0 276.0C284.0 274.89542 284.89542 274.0 286.0 274.0L296.0 274.0C297.10458 274.0 298.0 274.89542 298.0 276.0Z" fill-rule="nonzero"/><path stroke="#000000" stroke-width="2.0" stroke-linecap="butt" stroke-opacity="0.0" clip-path="url(#id_0)" d="M348.0 332.0L334.0 332.0L334.0 288.0C334.0 286.89542 334.89542 286.0 336.0 286.0L346.0 286.0C347.10458 286.0 348.0 286.89542 348.0 288.0Z" fill-rule="nonzero"/><path fill="#4285f4" clip-path="url(#id_0)" d="M348.0 332.0L334.0 332.0L334.0 288.0C334.0 286.89542 334.89542 286.0 336.0 286.0L346.0 286.0C347.10458 286.0 348.0 286.89542 348.0 288.0Z" fill-rule="nonzero"/><path stroke="#000000" stroke-width="2.0" stroke-linecap="butt" stroke-opacity="0.0" clip-path="url(#id_0)" d="M398.0 332.0L384.0 332.0L384.0 307.0C384.0 305.89542 384.89542 305.0 386.0 305.0L396.0 305.0C397.10458 305.0 398.0 305.89542 398.0 307.0Z" fill-rule="nonzero"/><path fill="#4285f4" clip-path="url(#id_0)" d="M398.0 332.0L384.0 332.0L384.0 307.0C384.0 305.89542 384.89542 305.0 386.0 305.0L396.0 305.0C397.10458 305.0 398.0 305.89542 398.0 307.0Z" fill-rule="nonzero"/><path stroke="#000000" stroke-width="2.0" stroke-linecap="butt" stroke-opacity="0.0" clip-path="url(#id_0)" d="M447.0 332.0L433.0 332.0L433.0 308.0C433.0 306.89542 433.89542 306.0 435.0 306.0L445.0 306.0C446.10458 306.0 447.0 306.89542 447.0 308.0Z" fill-rule="nonzero"/><path fill="#4285f4" clip-path="url(#id_0)" d="M447.0 332.0L433.0 332.0L433.0 308.0C433.0 306.89542 433.89542 306.0 435.0 306.0L445.0 306.0C446.10458 306.0 447.0 306.89542 447.0 308.0Z" fill-rule="nonzero"/><path stroke="#000000" stroke-width="2.0" stroke-linecap="butt" stroke-opacity="0.0" clip-path="url(#id_0)" d="M497.0 332.0L483.0 332.0L483.0 316.0C483.0 314.89542 483.89542 314.0 485.0 314.0L495.0 314.0C496.10458 314.0 497.0 314.89542 497.0 316.0Z" fill-rule="nonzero"/><path fill="#4285f4" clip-path="url(#id_0)" d="M497.0 332.0L483.0 332.0L483.0 316.0C483.0 314.89542 483.89542 314.0 485.0 314.0L495.0 314.0C496.10458 314.0 497.0 314.89542 497.0 316.0Z" fill-rule="nonzero"/><path stroke="#000000" stroke-width="2.0" stroke-linecap="butt" stroke-opacity="0.0" clip-path="url(#id_0)" d="M547.0 332.0L533.0 332.0L533.0 331.5C533.0 331.22385 533.2239 331.0 533.5 331.0L546.5 331.0C546.7761 331.0 547.0 331.22385 547.0 331.5Z" fill-rule="nonzero"/><path fill="#4285f4" clip-path="url(#id_0)" d="M547.0 332.0L533.0 332.0L533.0 331.5C533.0 331.22385 533.2239 331.0 533.5 331.0L546.5 331.0C546.7761 331.0 547.0 331.22385 547.0 331.5Z" fill-rule="nonzero"/><path stroke="#000000" stroke-width="2.0" stroke-linecap="butt" stroke-opacity="0.0" clip-path="url(#id_0)" d="M115.0 332.0L101.0 332.0L101.0 79.0C101.0 77.89543 101.89543 77.0 103.0 77.0L113.0 77.0C114.10457 77.0 115.0 77.89543 115.0 79.0Z" fill-rule="nonzero"/><path fill="#ea4335" clip-path="url(#id_0)" d="M115.0 332.0L101.0 332.0L101.0 79.0C101.0 77.89543 101.89543 77.0 103.0 77.0L113.0 77.0C114.10457 77.0 115.0 77.89543 115.0 79.0Z" fill-rule="nonzero"/><path stroke="#000000" stroke-width="2.0" stroke-linecap="butt" stroke-opacity="0.0" clip-path="url(#id_0)" d="M165.0 332.0L151.0 332.0L151.0 205.0C151.0 203.89543 151.89543 203.0 153.0 203.0L163.0 203.0C164.10457 203.0 165.0 203.89543 165.0 205.0Z" fill-rule="nonzero"/><path fill="#ea4335" clip-path="url(#id_0)" d="M165.0 332.0L151.0 332.0L151.0 205.0C151.0 203.89543 151.89543 203.0 153.0 203.0L163.0 203.0C164.10457 203.0 165.0 203.89543 165.0 205.0Z" fill-rule="nonzero"/><path stroke="#000000" stroke-width="2.0" stroke-linecap="butt" stroke-opacity="0.0" clip-path="url(#id_0)" d="M215.0 332.0L201.0 332.0L201.0 229.0C201.0 227.89543 201.89543 227.0 203.0 227.0L213.0 227.0C214.10457 227.0 215.0 227.89543 215.0 229.0Z" fill-rule="nonzero"/><path fill="#ea4335" clip-path="url(#id_0)" d="M215.0 332.0L201.0 332.0L201.0 229.0C201.0 227.89543 201.89543 227.0 203.0 227.0L213.0 227.0C214.10457 227.0 215.0 227.89543 215.0 229.0Z" fill-rule="nonzero"/><path stroke="#000000" stroke-width="2.0" stroke-linecap="butt" stroke-opacity="0.0" clip-path="url(#id_0)" d="M264.0 332.0L250.0 332.0L250.0 260.0C250.0 258.89542 250.89543 258.0 252.0 258.0L262.0 258.0C263.10458 258.0 264.0 258.89542 264.0 260.0Z" fill-rule="nonzero"/><path fill="#ea4335" clip-path="url(#id_0)" d="M264.0 332.0L250.0 332.0L250.0 260.0C250.0 258.89542 250.89543 258.0 252.0 258.0L262.0 258.0C263.10458 258.0 264.0 258.89542 264.0 260.0Z" fill-rule="nonzero"/><path stroke="#000000" stroke-width="2.0" stroke-linecap="butt" stroke-opacity="0.0" clip-path="url(#id_0)" d="M314.0 332.0L300.0 332.0L300.0 277.0C300.0 275.89542 300.89542 275.0 302.0 275.0L312.0 275.0C313.10458 275.0 314.0 275.89542 314.0 277.0Z" fill-rule="nonzero"/><path fill="#ea4335" clip-path="url(#id_0)" d="M314.0 332.0L300.0 332.0L300.0 277.0C300.0 275.89542 300.89542 275.0 302.0 275.0L312.0 275.0C313.10458 275.0 314.0 275.89542 314.0 277.0Z" fill-rule="nonzero"/><path stroke="#000000" stroke-width="2.0" stroke-linecap="butt" stroke-opacity="0.0" clip-path="url(#id_0)" d="M364.0 332.0L350.0 332.0L350.0 297.0C350.0 295.89542 350.89542 295.0 352.0 295.0L362.0 295.0C363.10458 295.0 364.0 295.89542 364.0 297.0Z" fill-rule="nonzero"/><path fill="#ea4335" clip-path="url(#id_0)" d="M364.0 332.0L350.0 332.0L350.0 297.0C350.0 295.89542 350.89542 295.0 352.0 295.0L362.0 295.0C363.10458 295.0 364.0 295.89542 364.0 297.0Z" fill-rule="nonzero"/><path stroke="#000000" stroke-width="2.0" stroke-linecap="butt" stroke-opacity="0.0" clip-path="url(#id_0)" d="M414.0 332.0L400.0 332.0L400.0 312.0C400.0 310.89542 400.89542 310.0 402.0 310.0L412.0 310.0C413.10458 310.0 414.0 310.89542 414.0 312.0Z" fill-rule="nonzero"/><path fill="#ea4335" clip-path="url(#id_0)" d="M414.0 332.0L400.0 332.0L400.0 312.0C400.0 310.89542 400.89542 310.0 402.0 310.0L412.0 310.0C413.10458 310.0 414.0 310.89542 414.0 312.0Z" fill-rule="nonzero"/><path stroke="#000000" stroke-width="2.0" stroke-linecap="butt" stroke-opacity="0.0" clip-path="url(#id_0)" d="M463.0 332.0L449.0 332.0L449.0 323.0C449.0 321.89542 449.89542 321.0 451.0 321.0L461.0 321.0C462.10458 321.0 463.0 321.89542 463.0 323.0Z" fill-rule="nonzero"/><path fill="#ea4335" clip-path="url(#id_0)" d="M463.0 332.0L449.0 332.0L449.0 323.0C449.0 321.89542 449.89542 321.0 451.0 321.0L461.0 321.0C462.10458 321.0 463.0 321.89542 463.0 323.0Z" fill-rule="nonzero"/><path stroke="#000000" stroke-width="2.0" stroke-linecap="butt" stroke-opacity="0.0" clip-path="url(#id_0)" d="M513.0 332.0L499.0 332.0L499.0 325.0C499.0 323.89542 499.89542 323.0 501.0 323.0L511.0 323.0C512.10455 323.0 513.0 323.89542 513.0 325.0Z" fill-rule="nonzero"/><path fill="#ea4335" clip-path="url(#id_0)" d="M513.0 332.0L499.0 332.0L499.0 325.0C499.0 323.89542 499.89542 323.0 501.0 323.0L511.0 323.0C512.10455 323.0 513.0 323.89542 513.0 325.0Z" fill-rule="nonzero"/><path stroke="#000000" stroke-width="2.0" stroke-linecap="butt" stroke-opacity="0.0" clip-path="url(#id_0)" d="M563.0 332.0L549.0 332.0L549.0 332.0L563.0 332.0Z" fill-rule="nonzero"/><path fill="#ea4335" clip-path="url(#id_0)" d="M563.0 332.0L549.0 332.0L549.0 332.0L563.0 332.0Z" fill-rule="nonzero"/><path fill="#000000" d="M26.05 332.21564Q26.05 330.6844 26.3625 329.7625Q26.675 328.825 27.284374 328.325Q27.909374 327.825 28.846874 327.825Q29.534374 327.825 30.05 328.10626Q30.58125 328.3875 30.925 328.91876Q31.26875 329.4344 31.45625 330.1844Q31.64375 330.9344 31.64375 332.21564Q31.64375 333.73126 31.33125 334.65314Q31.034374 335.575 30.409374 336.09064Q29.8 336.59064 28.846874 336.59064Q27.6125 336.59064 26.89375 335.7Q26.05 334.6375 26.05 332.21564ZM27.128124 332.21564Q27.128124 334.325 27.628124 335.02814Q28.128124 335.73126 28.846874 335.73126Q29.58125 335.73126 30.065624 335.02814Q30.565624 334.325 30.565624 332.21564Q30.565624 330.09064 30.065624 329.40314Q29.58125 328.7 28.83125 328.7Q28.1125 328.7 27.675 329.3094Q27.128124 330.09064 27.128124 332.21564ZM33.64375 336.45L33.64375 335.2469L34.846874 335.2469L34.846874 336.45L33.64375 336.45ZM36.05 332.21564Q36.05 330.6844 36.3625 329.7625Q36.675 328.825 37.284374 328.325Q37.909374 327.825 38.846874 327.825Q39.534374 327.825 40.05 328.10626Q40.58125 328.3875 40.925 328.91876Q41.26875 329.4344 41.45625 330.1844Q41.64375 330.9344 41.64375 332.21564Q41.64375 333.73126 41.33125 334.65314Q41.034374 335.575 40.409374 336.09064Q39.8 336.59064 38.846874 336.59064Q37.6125 336.59064 36.89375 335.7Q36.05 334.6375 36.05 332.21564ZM37.128124 332.21564Q37.128124 334.325 37.628124 335.02814Q38.128124 335.73126 38.846874 335.73126Q39.58125 335.73126 40.065624 335.02814Q40.565624 334.325 40.565624 332.21564Q40.565624 330.09064 40.065624 329.40314Q39.58125 328.7 38.83125 328.7Q38.1125 328.7 37.675 329.3094Q37.128124 330.09064 37.128124 332.21564ZM43.05 332.21564Q43.05 330.6844 43.3625 329.7625Q43.675 328.825 44.284374 328.325Q44.909374 327.825 45.846874 327.825Q46.534374 327.825 47.05 328.10626Q47.58125 328.3875 47.925 328.91876Q48.26875 329.4344 48.45625 330.1844Q48.64375 330.9344 48.64375 332.21564Q48.64375 333.73126 48.33125 334.65314Q48.034374 335.575 47.409374 336.09064Q46.8 336.59064 45.846874 336.59064Q44.6125 336.59064 43.89375 335.7Q43.05 334.6375 43.05 332.21564ZM44.128124 332.21564Q44.128124 334.325 44.628124 335.02814Q45.128124 335.73126 45.846874 335.73126Q46.58125 335.73126 47.065624 335.02814Q47.565624 334.325 47.565624 332.21564Q47.565624 330.09064 47.065624 329.40314Q46.58125 328.7 45.83125 328.7Q45.1125 328.7 44.675 329.3094Q44.128124 330.09064 44.128124 332.21564ZM50.253124 329.91876Q50.253124 328.9969 50.70625 328.35626Q51.175 327.71564 52.05 327.71564Q52.8625 327.71564 53.39375 328.29376Q53.925 328.8719 53.925 329.98126Q53.925 331.075 53.378124 331.66876Q52.846874 332.2469 52.065624 332.2469Q51.284374 332.2469 50.76875 331.66876Q50.253124 331.09064 50.253124 329.91876ZM52.08125 328.4344Q51.690624 328.4344 51.425 328.77814Q51.175 329.1219 51.175 330.02814Q51.175 330.85626 51.425 331.2Q51.690624 331.52814 52.08125 331.52814Q52.4875 331.52814 52.7375 331.1844Q53.003124 330.84064 53.003124 329.95Q53.003124 329.10626 52.7375 328.77814Q52.471874 328.4344 52.08125 328.4344ZM52.08125 336.7625L56.784374 327.71564L57.64375 327.71564L52.95625 336.7625L52.08125 336.7625ZM55.8 334.4344Q55.8 333.5125 56.253124 332.8719Q56.721874 332.23126 57.6125 332.23126Q58.425 332.23126 58.95625 332.8094Q59.4875 333.3719 59.4875 334.4969Q59.4875 335.59064 58.940624 336.1844Q58.409374 336.7625 57.6125 336.7625Q56.846874 336.7625 56.315624 336.1844Q55.8 335.60626 55.8 334.4344ZM57.64375 332.95Q57.2375 332.95 56.971874 333.29376Q56.721874 333.6375 56.721874 334.54376Q56.721874 335.35626 56.9875 335.7Q57.253124 336.04376 57.64375 336.04376Q58.034374 336.04376 58.3 335.7Q58.565624 335.35626 58.565624 334.45Q58.565624 333.6219 58.3 333.29376Q58.034374 332.95 57.64375 332.95Z" fill-rule="nonzero"/><path fill="#000000" d="M23.01875 266.31668L21.971874 266.31668L21.971874 259.59793Q21.58125 259.9573 20.95625 260.3323Q20.346874 260.69168 19.8625 260.86356L19.8625 259.84793Q20.7375 259.42606 21.39375 258.84793Q22.065624 258.25418 22.346874 257.69168L23.01875 257.69168L23.01875 266.31668ZM26.05 262.0823Q26.05 260.55106 26.3625 259.62918Q26.675 258.69168 27.284374 258.19168Q27.909374 257.69168 28.846874 257.69168Q29.534374 257.69168 30.05 257.97293Q30.58125 258.25418 30.925 258.78543Q31.26875 259.30106 31.45625 260.05106Q31.64375 260.80106 31.64375 262.0823Q31.64375 263.59793 31.33125 264.5198Q31.034374 265.44168 30.409374 265.9573Q29.8 266.4573 28.846874 266.4573Q27.6125 266.4573 26.89375 265.56668Q26.05 264.50418 26.05 262.0823ZM27.128124 262.0823Q27.128124 264.19168 27.628124 264.8948Q28.128124 265.59793 28.846874 265.59793Q29.58125 265.59793 30.065624 264.8948Q30.565624 264.19168 30.565624 262.0823Q30.565624 259.9573 30.065624 259.2698Q29.58125 258.56668 28.83125 258.56668Q28.1125 258.56668 27.675 259.17606Q27.128124 259.9573 27.128124 262.0823ZM33.64375 266.31668L33.64375 265.11356L34.846874 265.11356L34.846874 266.31668L33.64375 266.31668ZM36.05 262.0823Q36.05 260.55106 36.3625 259.62918Q36.675 258.69168 37.284374 258.19168Q37.909374 257.69168 38.846874 257.69168Q39.534374 257.69168 40.05 257.97293Q40.58125 258.25418 40.925 258.78543Q41.26875 259.30106 41.45625 260.05106Q41.64375 260.80106 41.64375 262.0823Q41.64375 263.59793 41.33125 264.5198Q41.034374 265.44168 40.409374 265.9573Q39.8 266.4573 38.846874 266.4573Q37.6125 266.4573 36.89375 265.56668Q36.05 264.50418 36.05 262.0823ZM37.128124 262.0823Q37.128124 264.19168 37.628124 264.8948Q38.128124 265.59793 38.846874 265.59793Q39.58125 265.59793 40.065624 264.8948Q40.565624 264.19168 40.565624 262.0823Q40.565624 259.9573 40.065624 259.2698Q39.58125 258.56668 38.83125 258.56668Q38.1125 258.56668 37.675 259.17606Q37.128124 259.9573 37.128124 262.0823ZM43.05 262.0823Q43.05 260.55106 43.3625 259.62918Q43.675 258.69168 44.284374 258.19168Q44.909374 257.69168 45.846874 257.69168Q46.534374 257.69168 47.05 257.97293Q47.58125 258.25418 47.925 258.78543Q48.26875 259.30106 48.45625 260.05106Q48.64375 260.80106 48.64375 262.0823Q48.64375 263.59793 48.33125 264.5198Q48.034374 265.44168 47.409374 265.9573Q46.8 266.4573 45.846874 266.4573Q44.6125 266.4573 43.89375 265.56668Q43.05 264.50418 43.05 262.0823ZM44.128124 262.0823Q44.128124 264.19168 44.628124 264.8948Q45.128124 265.59793 45.846874 265.59793Q46.58125 265.59793 47.065624 264.8948Q47.565624 264.19168 47.565624 262.0823Q47.565624 259.9573 47.065624 259.2698Q46.58125 258.56668 45.83125 258.56668Q45.1125 258.56668 44.675 259.17606Q44.128124 259.9573 44.128124 262.0823ZM50.253124 259.78543Q50.253124 258.86356 50.70625 258.22293Q51.175 257.5823 52.05 257.5823Q52.8625 257.5823 53.39375 258.16043Q53.925 258.73856 53.925 259.84793Q53.925 260.94168 53.378124 261.53543Q52.846874 262.11356 52.065624 262.11356Q51.284374 262.11356 50.76875 261.53543Q50.253124 260.9573 50.253124 259.78543ZM52.08125 258.30106Q51.690624 258.30106 51.425 258.6448Q51.175 258.98856 51.175 259.8948Q51.175 260.72293 51.425 261.06668Q51.690624 261.3948 52.08125 261.3948Q52.4875 261.3948 52.7375 261.05106Q53.003124 260.7073 53.003124 259.81668Q53.003124 258.97293 52.7375 258.6448Q52.471874 258.30106 52.08125 258.30106ZM52.08125 266.62918L56.784374 257.5823L57.64375 257.5823L52.95625 266.62918L52.08125 266.62918ZM55.8 264.30106Q55.8 263.37918 56.253124 262.73856Q56.721874 262.09793 57.6125 262.09793Q58.425 262.09793 58.95625 262.67606Q59.4875 263.23856 59.4875 264.36356Q59.4875 265.4573 58.940624 266.05106Q58.409374 266.62918 57.6125 266.62918Q56.846874 266.62918 56.315624 266.05106Q55.8 265.47293 55.8 264.30106ZM57.64375 262.81668Q57.2375 262.81668 56.971874 263.16043Q56.721874 263.50418 56.721874 264.41043Q56.721874 265.22293 56.9875 265.56668Q57.253124 265.91043 57.64375 265.91043Q58.034374 265.91043 58.3 265.56668Q58.565624 265.22293 58.565624 264.31668Q58.565624 263.48856 58.3 263.16043Q58.034374 262.81668 57.64375 262.81668Z" fill-rule="nonzero"/><path fill="#000000" d="M24.596874 195.16771L24.596874 196.18333L18.909374 196.18333Q18.909374 195.80833 19.034374 195.44896Q19.253124 194.87083 19.721874 194.30833Q20.20625 193.74583 21.1125 193.01146Q22.51875 191.85521 23.003124 191.18333Q23.503124 190.51146 23.503124 189.91771Q23.503124 189.29271 23.05 188.87083Q22.596874 188.43333 21.878124 188.43333Q21.1125 188.43333 20.659374 188.88646Q20.20625 189.33958 20.190624 190.15208L19.1125 190.04271Q19.221874 188.82396 19.940624 188.19896Q20.675 187.55833 21.909374 187.55833Q23.14375 187.55833 23.8625 188.24583Q24.58125 188.93333 24.58125 189.94896Q24.58125 190.46458 24.3625 190.96458Q24.159374 191.44896 23.659374 192.01146Q23.175 192.55833 22.05 193.51146Q21.096874 194.30833 20.815624 194.60521Q20.55 194.88646 20.378124 195.16771L24.596874 195.16771ZM26.05 191.94896Q26.05 190.41771 26.3625 189.49583Q26.675 188.55833 27.284374 188.05833Q27.909374 187.55833 28.846874 187.55833Q29.534374 187.55833 30.05 187.83958Q30.58125 188.12083 30.925 188.65208Q31.26875 189.16771 31.45625 189.91771Q31.64375 190.66771 31.64375 191.94896Q31.64375 193.46458 31.33125 194.38646Q31.034374 195.30833 30.409374 195.82396Q29.8 196.32396 28.846874 196.32396Q27.6125 196.32396 26.89375 195.43333Q26.05 194.37083 26.05 191.94896ZM27.128124 191.94896Q27.128124 194.05833 27.628124 194.76146Q28.128124 195.46458 28.846874 195.46458Q29.58125 195.46458 30.065624 194.76146Q30.565624 194.05833 30.565624 191.94896Q30.565624 189.82396 30.065624 189.13646Q29.58125 188.43333 28.83125 188.43333Q28.1125 188.43333 27.675 189.04271Q27.128124 189.82396 27.128124 191.94896ZM33.64375 196.18333L33.64375 194.98021L34.846874 194.98021L34.846874 196.18333L33.64375 196.18333ZM36.05 191.94896Q36.05 190.41771 36.3625 189.49583Q36.675 188.55833 37.284374 188.05833Q37.909374 187.55833 38.846874 187.55833Q39.534374 187.55833 40.05 187.83958Q40.58125 188.12083 40.925 188.65208Q41.26875 189.16771 41.45625 189.91771Q41.64375 190.66771 41.64375 191.94896Q41.64375 193.46458 41.33125 194.38646Q41.034374 195.30833 40.409374 195.82396Q39.8 196.32396 38.846874 196.32396Q37.6125 196.32396 36.89375 195.43333Q36.05 194.37083 36.05 191.94896ZM37.128124 191.94896Q37.128124 194.05833 37.628124 194.76146Q38.128124 195.46458 38.846874 195.46458Q39.58125 195.46458 40.065624 194.76146Q40.565624 194.05833 40.565624 191.94896Q40.565624 189.82396 40.065624 189.13646Q39.58125 188.43333 38.83125 188.43333Q38.1125 188.43333 37.675 189.04271Q37.128124 189.82396 37.128124 191.94896ZM43.05 191.94896Q43.05 190.41771 43.3625 189.49583Q43.675 188.55833 44.284374 188.05833Q44.909374 187.55833 45.846874 187.55833Q46.534374 187.55833 47.05 187.83958Q47.58125 188.12083 47.925 188.65208Q48.26875 189.16771 48.45625 189.91771Q48.64375 190.66771 48.64375 191.94896Q48.64375 193.46458 48.33125 194.38646Q48.034374 195.30833 47.409374 195.82396Q46.8 196.32396 45.846874 196.32396Q44.6125 196.32396 43.89375 195.43333Q43.05 194.37083 43.05 191.94896ZM44.128124 191.94896Q44.128124 194.05833 44.628124 194.76146Q45.128124 195.46458 45.846874 195.46458Q46.58125 195.46458 47.065624 194.76146Q47.565624 194.05833 47.565624 191.94896Q47.565624 189.82396 47.065624 189.13646Q46.58125 188.43333 45.83125 188.43333Q45.1125 188.43333 44.675 189.04271Q44.128124 189.82396 44.128124 191.94896ZM50.253124 189.65208Q50.253124 188.73021 50.70625 188.08958Q51.175 187.44896 52.05 187.44896Q52.8625 187.44896 53.39375 188.02708Q53.925 188.60521 53.925 189.71458Q53.925 190.80833 53.378124 191.40208Q52.846874 191.98021 52.065624 191.98021Q51.284374 191.98021 50.76875 191.40208Q50.253124 190.82396 50.253124 189.65208ZM52.08125 188.16771Q51.690624 188.16771 51.425 188.51146Q51.175 188.85521 51.175 189.76146Q51.175 190.58958 51.425 190.93333Q51.690624 191.26146 52.08125 191.26146Q52.4875 191.26146 52.7375 190.91771Q53.003124 190.57396 53.003124 189.68333Q53.003124 188.83958 52.7375 188.51146Q52.471874 188.16771 52.08125 188.16771ZM52.08125 196.49583L56.784374 187.44896L57.64375 187.44896L52.95625 196.49583L52.08125 196.49583ZM55.8 194.16771Q55.8 193.24583 56.253124 192.60521Q56.721874 191.96458 57.6125 191.96458Q58.425 191.96458 58.95625 192.54271Q59.4875 193.10521 59.4875 194.23021Q59.4875 195.32396 58.940624 195.91771Q58.409374 196.49583 57.6125 196.49583Q56.846874 196.49583 56.315624 195.91771Q55.8 195.33958 55.8 194.16771ZM57.64375 192.68333Q57.2375 192.68333 56.971874 193.02708Q56.721874 193.37083 56.721874 194.27708Q56.721874 195.08958 56.9875 195.43333Q57.253124 195.77708 57.64375 195.77708Q58.034374 195.77708 58.3 195.43333Q58.565624 195.08958 58.565624 194.18333Q58.565624 193.35521 58.3 193.02708Q58.034374 192.68333 57.64375 192.68333Z" fill-rule="nonzero"/><path fill="#000000" d="M19.05 123.78438L20.1125 123.64375Q20.284374 124.53438 20.721874 124.94063Q21.159374 125.33125 21.784374 125.33125Q22.534374 125.33125 23.05 124.81563Q23.565624 124.3 23.565624 123.53438Q23.565624 122.81563 23.08125 122.34688Q22.6125 121.8625 21.878124 121.8625Q21.58125 121.8625 21.128124 121.9875L21.253124 121.05Q21.3625 121.06563 21.425 121.06563Q22.096874 121.06563 22.628124 120.72188Q23.175 120.3625 23.175 119.62813Q23.175 119.05 22.784374 118.675Q22.39375 118.28438 21.76875 118.28438Q21.159374 118.28438 20.7375 118.675Q20.33125 119.06563 20.221874 119.83125L19.159374 119.64375Q19.346874 118.59688 20.034374 118.01875Q20.721874 117.425 21.7375 117.425Q22.440624 117.425 23.034374 117.7375Q23.628124 118.03438 23.940624 118.55Q24.253124 119.06563 24.253124 119.65938Q24.253124 120.20625 23.95625 120.675Q23.659374 121.12813 23.08125 121.39375Q23.83125 121.56563 24.253124 122.12813Q24.675 122.675 24.675 123.51875Q24.675 124.64375 23.846874 125.425Q23.034374 126.20625 21.784374 126.20625Q20.659374 126.20625 19.909374 125.53438Q19.159374 124.84688 19.05 123.78438ZM26.05 121.81563Q26.05 120.28438 26.3625 119.3625Q26.675 118.425 27.284374 117.925Q27.909374 117.425 28.846874 117.425Q29.534374 117.425 30.05 117.70625Q30.58125 117.9875 30.925 118.51875Q31.26875 119.03438 31.45625 119.78438Q31.64375 120.53438 31.64375 121.81563Q31.64375 123.33125 31.33125 124.25313Q31.034374 125.175 30.409374 125.69063Q29.8 126.19063 28.846874 126.19063Q27.6125 126.19063 26.89375 125.3Q26.05 124.2375 26.05 121.81563ZM27.128124 121.81563Q27.128124 123.925 27.628124 124.62813Q28.128124 125.33125 28.846874 125.33125Q29.58125 125.33125 30.065624 124.62813Q30.565624 123.925 30.565624 121.81563Q30.565624 119.69063 30.065624 119.00313Q29.58125 118.3 28.83125 118.3Q28.1125 118.3 27.675 118.90938Q27.128124 119.69063 27.128124 121.81563ZM33.64375 126.05L33.64375 124.84688L34.846874 124.84688L34.846874 126.05L33.64375 126.05ZM36.05 121.81563Q36.05 120.28438 36.3625 119.3625Q36.675 118.425 37.284374 117.925Q37.909374 117.425 38.846874 117.425Q39.534374 117.425 40.05 117.70625Q40.58125 117.9875 40.925 118.51875Q41.26875 119.03438 41.45625 119.78438Q41.64375 120.53438 41.64375 121.81563Q41.64375 123.33125 41.33125 124.25313Q41.034374 125.175 40.409374 125.69063Q39.8 126.19063 38.846874 126.19063Q37.6125 126.19063 36.89375 125.3Q36.05 124.2375 36.05 121.81563ZM37.128124 121.81563Q37.128124 123.925 37.628124 124.62813Q38.128124 125.33125 38.846874 125.33125Q39.58125 125.33125 40.065624 124.62813Q40.565624 123.925 40.565624 121.81563Q40.565624 119.69063 40.065624 119.00313Q39.58125 118.3 38.83125 118.3Q38.1125 118.3 37.675 118.90938Q37.128124 119.69063 37.128124 121.81563ZM43.05 121.81563Q43.05 120.28438 43.3625 119.3625Q43.675 118.425 44.284374 117.925Q44.909374 117.425 45.846874 117.425Q46.534374 117.425 47.05 117.70625Q47.58125 117.9875 47.925 118.51875Q48.26875 119.03438 48.45625 119.78438Q48.64375 120.53438 48.64375 121.81563Q48.64375 123.33125 48.33125 124.25313Q48.034374 125.175 47.409374 125.69063Q46.8 126.19063 45.846874 126.19063Q44.6125 126.19063 43.89375 125.3Q43.05 124.2375 43.05 121.81563ZM44.128124 121.81563Q44.128124 123.925 44.628124 124.62813Q45.128124 125.33125 45.846874 125.33125Q46.58125 125.33125 47.065624 124.62813Q47.565624 123.925 47.565624 121.81563Q47.565624 119.69063 47.065624 119.00313Q46.58125 118.3 45.83125 118.3Q45.1125 118.3 44.675 118.90938Q44.128124 119.69063 44.128124 121.81563ZM50.253124 119.51875Q50.253124 118.59688 50.70625 117.95625Q51.175 117.31563 52.05 117.31563Q52.8625 117.31563 53.39375 117.89375Q53.925 118.47188 53.925 119.58125Q53.925 120.675 53.378124 121.26875Q52.846874 121.84688 52.065624 121.84688Q51.284374 121.84688 50.76875 121.26875Q50.253124 120.69063 50.253124 119.51875ZM52.08125 118.03438Q51.690624 118.03438 51.425 118.37813Q51.175 118.72188 51.175 119.62813Q51.175 120.45625 51.425 120.8Q51.690624 121.12813 52.08125 121.12813Q52.4875 121.12813 52.7375 120.78438Q53.003124 120.44063 53.003124 119.55Q53.003124 118.70625 52.7375 118.37813Q52.471874 118.03438 52.08125 118.03438ZM52.08125 126.3625L56.784374 117.31563L57.64375 117.31563L52.95625 126.3625L52.08125 126.3625ZM55.8 124.03438Q55.8 123.1125 56.253124 122.47188Q56.721874 121.83125 57.6125 121.83125Q58.425 121.83125 58.95625 122.40938Q59.4875 122.97188 59.4875 124.09688Q59.4875 125.19063 58.940624 125.78438Q58.409374 126.3625 57.6125 126.3625Q56.846874 126.3625 56.315624 125.78438Q55.8 125.20625 55.8 124.03438ZM57.64375 122.55Q57.2375 122.55 56.971874 122.89375Q56.721874 123.2375 56.721874 124.14375Q56.721874 124.95625 56.9875 125.3Q57.253124 125.64375 57.64375 125.64375Q58.034374 125.64375 58.3 125.3Q58.565624 124.95625 58.565624 124.05Q58.565624 123.22188 58.3 122.89375Q58.034374 122.55 57.64375 122.55Z" fill-rule="nonzero"/><path fill="#000000" d="M22.425 55.916668L22.425 53.854168L18.70625 53.854168L18.70625 52.885418L22.628124 47.322918L23.4875 47.322918L23.4875 52.885418L24.64375 52.885418L24.64375 53.854168L23.4875 53.854168L23.4875 55.916668L22.425 55.916668ZM22.425 52.885418L22.425 49.026043L19.7375 52.885418L22.425 52.885418ZM26.05 51.682293Q26.05 50.151043 26.3625 49.229168Q26.675 48.291668 27.284374 47.791668Q27.909374 47.291668 28.846874 47.291668Q29.534374 47.291668 30.05 47.572918Q30.58125 47.854168 30.925 48.385418Q31.26875 48.901043 31.45625 49.651043Q31.64375 50.401043 31.64375 51.682293Q31.64375 53.197918 31.33125 54.119793Q31.034374 55.041668 30.409374 55.557293Q29.8 56.057293 28.846874 56.057293Q27.6125 56.057293 26.89375 55.166668Q26.05 54.104168 26.05 51.682293ZM27.128124 51.682293Q27.128124 53.791668 27.628124 54.494793Q28.128124 55.197918 28.846874 55.197918Q29.58125 55.197918 30.065624 54.494793Q30.565624 53.791668 30.565624 51.682293Q30.565624 49.557293 30.065624 48.869793Q29.58125 48.166668 28.83125 48.166668Q28.1125 48.166668 27.675 48.776043Q27.128124 49.557293 27.128124 51.682293ZM33.64375 55.916668L33.64375 54.713543L34.846874 54.713543L34.846874 55.916668L33.64375 55.916668ZM36.05 51.682293Q36.05 50.151043 36.3625 49.229168Q36.675 48.291668 37.284374 47.791668Q37.909374 47.291668 38.846874 47.291668Q39.534374 47.291668 40.05 47.572918Q40.58125 47.854168 40.925 48.385418Q41.26875 48.901043 41.45625 49.651043Q41.64375 50.401043 41.64375 51.682293Q41.64375 53.197918 41.33125 54.119793Q41.034374 55.041668 40.409374 55.557293Q39.8 56.057293 38.846874 56.057293Q37.6125 56.057293 36.89375 55.166668Q36.05 54.104168 36.05 51.682293ZM37.128124 51.682293Q37.128124 53.791668 37.628124 54.494793Q38.128124 55.197918 38.846874 55.197918Q39.58125 55.197918 40.065624 54.494793Q40.565624 53.791668 40.565624 51.682293Q40.565624 49.557293 40.065624 48.869793Q39.58125 48.166668 38.83125 48.166668Q38.1125 48.166668 37.675 48.776043Q37.128124 49.557293 37.128124 51.682293ZM43.05 51.682293Q43.05 50.151043 43.3625 49.229168Q43.675 48.291668 44.284374 47.791668Q44.909374 47.291668 45.846874 47.291668Q46.534374 47.291668 47.05 47.572918Q47.58125 47.854168 47.925 48.385418Q48.26875 48.901043 48.45625 49.651043Q48.64375 50.401043 48.64375 51.682293Q48.64375 53.197918 48.33125 54.119793Q48.034374 55.041668 47.409374 55.557293Q46.8 56.057293 45.846874 56.057293Q44.6125 56.057293 43.89375 55.166668Q43.05 54.104168 43.05 51.682293ZM44.128124 51.682293Q44.128124 53.791668 44.628124 54.494793Q45.128124 55.197918 45.846874 55.197918Q46.58125 55.197918 47.065624 54.494793Q47.565624 53.791668 47.565624 51.682293Q47.565624 49.557293 47.065624 48.869793Q46.58125 48.166668 45.83125 48.166668Q45.1125 48.166668 44.675 48.776043Q44.128124 49.557293 44.128124 51.682293ZM50.253124 49.385418Q50.253124 48.463543 50.70625 47.822918Q51.175 47.182293 52.05 47.182293Q52.8625 47.182293 53.39375 47.760418Q53.925 48.338543 53.925 49.447918Q53.925 50.541668 53.378124 51.135418Q52.846874 51.713543 52.065624 51.713543Q51.284374 51.713543 50.76875 51.135418Q50.253124 50.557293 50.253124 49.385418ZM52.08125 47.901043Q51.690624 47.901043 51.425 48.244793Q51.175 48.588543 51.175 49.494793Q51.175 50.322918 51.425 50.666668Q51.690624 50.994793 52.08125 50.994793Q52.4875 50.994793 52.7375 50.651043Q53.003124 50.307293 53.003124 49.416668Q53.003124 48.572918 52.7375 48.244793Q52.471874 47.901043 52.08125 47.901043ZM52.08125 56.229168L56.784374 47.182293L57.64375 47.182293L52.95625 56.229168L52.08125 56.229168ZM55.8 53.901043Q55.8 52.979168 56.253124 52.338543Q56.721874 51.697918 57.6125 51.697918Q58.425 51.697918 58.95625 52.276043Q59.4875 52.838543 59.4875 53.963543Q59.4875 55.057293 58.940624 55.651043Q58.409374 56.229168 57.6125 56.229168Q56.846874 56.229168 56.315624 55.651043Q55.8 55.072918 55.8 53.901043ZM57.64375 52.416668Q57.2375 52.416668 56.971874 52.760418Q56.721874 53.104168 56.721874 54.010418Q56.721874 54.822918 56.9875 55.166668Q57.253124 55.510418 57.64375 55.510418Q58.034374 55.510418 58.3 55.166668Q58.565624 54.822918 58.565624 53.916668Q58.565624 53.088543 58.3 52.760418Q58.034374 52.416668 57.64375 52.416668Z" fill-rule="nonzero"/><path fill="#000000" d="M81.28668 347.46564L82.30231 347.3719Q82.42731 348.09064 82.78668 348.41876Q83.16168 348.73126 83.72418 348.73126Q84.20856 348.73126 84.56793 348.5125Q84.94293 348.27814 85.17731 347.91876Q85.41168 347.54376 85.56793 346.91876Q85.72418 346.27814 85.72418 345.6219Q85.72418 345.54376 85.72418 345.40314Q85.41168 345.90314 84.86481 346.23126Q84.31793 346.54376 83.67731 346.54376Q82.59918 346.54376 81.86481 345.77814Q81.13043 344.9969 81.13043 343.73126Q81.13043 342.41876 81.89606 341.6219Q82.67731 340.825 83.83356 340.825Q84.66168 340.825 85.34918 341.27814Q86.05231 341.73126 86.41168 342.575Q86.77106 343.40314 86.77106 344.98126Q86.77106 346.6219 86.41168 347.60626Q86.06793 348.575 85.34918 349.09064Q84.64606 349.59064 83.70856 349.59064Q82.69293 349.59064 82.05231 349.04376Q81.41168 348.48126 81.28668 347.46564ZM85.59918 343.66876Q85.59918 342.7625 85.11481 342.23126Q84.64606 341.7 83.95856 341.7Q83.25543 341.7 82.72418 342.27814Q82.20856 342.84064 82.20856 343.7625Q82.20856 344.575 82.70856 345.09064Q83.20856 345.60626 83.92731 345.60626Q84.66168 345.60626 85.13043 345.09064Q85.59918 344.575 85.59918 343.66876ZM88.13043 345.21564Q88.13043 343.6844 88.44293 342.7625Q88.75543 341.825 89.36481 341.325Q89.98981 340.825 90.92731 340.825Q91.61481 340.825 92.13043 341.10626Q92.66168 341.3875 93.00543 341.91876Q93.34918 342.4344 93.53668 343.1844Q93.72418 343.9344 93.72418 345.21564Q93.72418 346.73126 93.41168 347.65314Q93.11481 348.575 92.48981 349.09064Q91.88043 349.59064 90.92731 349.59064Q89.69293 349.59064 88.97418 348.7Q88.13043 347.6375 88.13043 345.21564ZM89.20856 345.21564Q89.20856 347.325 89.70856 348.02814Q90.20856 348.73126 90.92731 348.73126Q91.66168 348.73126 92.14606 348.02814Q92.64606 347.325 92.64606 345.21564Q92.64606 343.09064 92.14606 342.40314Q91.66168 341.7 90.91168 341.7Q90.19293 341.7 89.75543 342.3094Q89.20856 343.09064 89.20856 345.21564ZM95.00543 346.8719L95.00543 345.8094L98.25543 345.8094L98.25543 346.8719L95.00543 346.8719ZM103.09918 349.45L102.05231 349.45L102.05231 342.73126Q101.66168 343.09064 101.03668 343.46564Q100.42731 343.825 99.94293 343.9969L99.94293 342.98126Q100.81793 342.5594 101.47418 341.98126Q102.14606 341.3875 102.42731 340.825L103.09918 340.825L103.09918 349.45ZM106.13043 345.21564Q106.13043 343.6844 106.44293 342.7625Q106.75543 341.825 107.36481 341.325Q107.98981 340.825 108.92731 340.825Q109.61481 340.825 110.13043 341.10626Q110.66168 341.3875 111.00543 341.91876Q111.34918 342.4344 111.53668 343.1844Q111.72418 343.9344 111.72418 345.21564Q111.72418 346.73126 111.41168 347.65314Q111.11481 348.575 110.48981 349.09064Q109.88043 349.59064 108.92731 349.59064Q107.69293 349.59064 106.97418 348.7Q106.13043 347.6375 106.13043 345.21564ZM107.20856 345.21564Q107.20856 347.325 107.70856 348.02814Q108.20856 348.73126 108.92731 348.73126Q109.66168 348.73126 110.14606 348.02814Q110.64606 347.325 110.64606 345.21564Q110.64606 343.09064 110.14606 342.40314Q109.66168 341.7 108.91168 341.7Q108.19293 341.7 107.75543 342.3094Q107.20856 343.09064 107.20856 345.21564ZM113.13043 345.21564Q113.13043 343.6844 113.44293 342.7625Q113.75543 341.825 114.36481 341.325Q114.98981 340.825 115.92731 340.825Q116.61481 340.825 117.13043 341.10626Q117.66168 341.3875 118.00543 341.91876Q118.34918 342.4344 118.53668 343.1844Q118.72418 343.9344 118.72418 345.21564Q118.72418 346.73126 118.41168 347.65314Q118.11481 348.575 117.48981 349.09064Q116.88043 349.59064 115.92731 349.59064Q114.69293 349.59064 113.97418 348.7Q113.13043 347.6375 113.13043 345.21564ZM114.20856 345.21564Q114.20856 347.325 114.70856 348.02814Q115.20856 348.73126 115.92731 348.73126Q116.66168 348.73126 117.14606 348.02814Q117.64606 347.325 117.64606 345.21564Q117.64606 343.09064 117.14606 342.40314Q116.66168 341.7 115.91168 341.7Q115.19293 341.7 114.75543 342.3094Q114.20856 343.09064 114.20856 345.21564Z" fill-rule="nonzero"/><path fill="#000000" d="M136.00423 344.79376Q135.34798 344.54376 135.01985 344.10626Q134.70735 343.65314 134.70735 343.04376Q134.70735 342.10626 135.37923 341.46564Q136.06673 340.825 137.1761 340.825Q138.3011 340.825 138.9886 341.48126Q139.6761 342.1375 139.6761 343.075Q139.6761 343.66876 139.3636 344.10626Q139.0511 344.54376 138.41048 344.79376Q139.20735 345.04376 139.6136 345.6219Q140.01985 346.2 140.01985 346.9969Q140.01985 348.09064 139.2386 348.84064Q138.47298 349.59064 137.19173 349.59064Q135.9261 349.59064 135.14485 348.84064Q134.3636 348.09064 134.3636 346.96564Q134.3636 346.1219 134.78548 345.5594Q135.22298 344.9969 136.00423 344.79376ZM135.78548 342.9969Q135.78548 343.60626 136.1761 343.9969Q136.58235 344.3875 137.20735 344.3875Q137.81673 344.3875 138.20735 344.0125Q138.59798 343.6219 138.59798 343.0594Q138.59798 342.48126 138.19173 342.09064Q137.78548 341.6844 137.19173 341.6844Q136.58235 341.6844 136.1761 342.075Q135.78548 342.46564 135.78548 342.9969ZM135.45735 346.96564Q135.45735 347.41876 135.66048 347.84064Q135.87923 348.2625 136.3011 348.4969Q136.72298 348.73126 137.20735 348.73126Q137.95735 348.73126 138.44173 348.2469Q138.94173 347.7625 138.94173 347.0125Q138.94173 346.2469 138.44173 345.7469Q137.94173 345.2469 137.1761 345.2469Q136.4261 345.2469 135.94173 345.7469Q135.45735 346.23126 135.45735 346.96564ZM141.37923 345.21564Q141.37923 343.6844 141.69173 342.7625Q142.00423 341.825 142.6136 341.325Q143.2386 340.825 144.1761 340.825Q144.8636 340.825 145.37923 341.10626Q145.91048 341.3875 146.25423 341.91876Q146.59798 342.4344 146.78548 343.1844Q146.97298 343.9344 146.97298 345.21564Q146.97298 346.73126 146.66048 347.65314Q146.3636 348.575 145.7386 349.09064Q145.12923 349.59064 144.1761 349.59064Q142.94173 349.59064 142.22298 348.7Q141.37923 347.6375 141.37923 345.21564ZM142.45735 345.21564Q142.45735 347.325 142.95735 348.02814Q143.45735 348.73126 144.1761 348.73126Q144.91048 348.73126 145.39485 348.02814Q145.89485 347.325 145.89485 345.21564Q145.89485 343.09064 145.39485 342.40314Q144.91048 341.7 144.16048 341.7Q143.44173 341.7 143.00423 342.3094Q142.45735 343.09064 142.45735 345.21564ZM148.25423 346.8719L148.25423 345.8094L151.50423 345.8094L151.50423 346.8719L148.25423 346.8719ZM154.00423 344.79376Q153.34798 344.54376 153.01985 344.10626Q152.70735 343.65314 152.70735 343.04376Q152.70735 342.10626 153.37923 341.46564Q154.06673 340.825 155.1761 340.825Q156.3011 340.825 156.9886 341.48126Q157.6761 342.1375 157.6761 343.075Q157.6761 343.66876 157.3636 344.10626Q157.0511 344.54376 156.41048 344.79376Q157.20735 345.04376 157.6136 345.6219Q158.01985 346.2 158.01985 346.9969Q158.01985 348.09064 157.2386 348.84064Q156.47298 349.59064 155.19173 349.59064Q153.9261 349.59064 153.14485 348.84064Q152.3636 348.09064 152.3636 346.96564Q152.3636 346.1219 152.78548 345.5594Q153.22298 344.9969 154.00423 344.79376ZM153.78548 342.9969Q153.78548 343.60626 154.1761 343.9969Q154.58235 344.3875 155.20735 344.3875Q155.81673 344.3875 156.20735 344.0125Q156.59798 343.6219 156.59798 343.0594Q156.59798 342.48126 156.19173 342.09064Q155.78548 341.6844 155.19173 341.6844Q154.58235 341.6844 154.1761 342.075Q153.78548 342.46564 153.78548 342.9969ZM153.45735 346.96564Q153.45735 347.41876 153.66048 347.84064Q153.87923 348.2625 154.3011 348.4969Q154.72298 348.73126 155.20735 348.73126Q155.95735 348.73126 156.44173 348.2469Q156.94173 347.7625 156.94173 347.0125Q156.94173 346.2469 156.44173 345.7469Q155.94173 345.2469 155.1761 345.2469Q154.4261 345.2469 153.94173 345.7469Q153.45735 346.23126 153.45735 346.96564ZM159.53548 347.46564L160.5511 347.3719Q160.6761 348.09064 161.03548 348.41876Q161.41048 348.73126 161.97298 348.73126Q162.45735 348.73126 162.81673 348.5125Q163.19173 348.27814 163.4261 347.91876Q163.66048 347.54376 163.81673 346.91876Q163.97298 346.27814 163.97298 345.6219Q163.97298 345.54376 163.97298 345.40314Q163.66048 345.90314 163.1136 346.23126Q162.56673 346.54376 161.9261 346.54376Q160.84798 346.54376 160.1136 345.77814Q159.37923 344.9969 159.37923 343.73126Q159.37923 342.41876 160.14485 341.6219Q160.9261 340.825 162.08235 340.825Q162.91048 340.825 163.59798 341.27814Q164.3011 341.73126 164.66048 342.575Q165.01985 343.40314 165.01985 344.98126Q165.01985 346.6219 164.66048 347.60626Q164.31673 348.575 163.59798 349.09064Q162.89485 349.59064 161.95735 349.59064Q160.94173 349.59064 160.3011 349.04376Q159.66048 348.48126 159.53548 347.46564ZM163.84798 343.66876Q163.84798 342.7625 163.3636 342.23126Q162.89485 341.7 162.20735 341.7Q161.50423 341.7 160.97298 342.27814Q160.45735 342.84064 160.45735 343.7625Q160.45735 344.575 160.95735 345.09064Q161.45735 345.60626 162.1761 345.60626Q162.91048 345.60626 163.37923 345.09064Q163.84798 344.575 163.84798 343.66876Z" fill-rule="nonzero"/><path fill="#000000" d="M184.19052 341.98126L184.19052 340.96564L189.75302 340.96564L189.75302 341.79376Q188.94052 342.66876 188.12802 344.1219Q187.33115 345.5594 186.89365 347.09064Q186.56552 348.16876 186.4874 349.45L185.39365 349.45Q185.40927 348.4344 185.78427 346.9969Q186.1749 345.5594 186.87802 344.23126Q187.59677 342.90314 188.40927 341.98126L184.19052 341.98126ZM191.12802 345.21564Q191.12802 343.6844 191.44052 342.7625Q191.75302 341.825 192.3624 341.325Q192.9874 340.825 193.9249 340.825Q194.6124 340.825 195.12802 341.10626Q195.65927 341.3875 196.00302 341.91876Q196.34677 342.4344 196.53427 343.1844Q196.72177 343.9344 196.72177 345.21564Q196.72177 346.73126 196.40927 347.65314Q196.1124 348.575 195.4874 349.09064Q194.87802 349.59064 193.9249 349.59064Q192.69052 349.59064 191.97177 348.7Q191.12802 347.6375 191.12802 345.21564ZM192.20615 345.21564Q192.20615 347.325 192.70615 348.02814Q193.20615 348.73126 193.9249 348.73126Q194.65927 348.73126 195.14365 348.02814Q195.64365 347.325 195.64365 345.21564Q195.64365 343.09064 195.14365 342.40314Q194.65927 341.7 193.90927 341.7Q193.19052 341.7 192.75302 342.3094Q192.20615 343.09064 192.20615 345.21564ZM198.00302 346.8719L198.00302 345.8094L201.25302 345.8094L201.25302 346.8719L198.00302 346.8719ZM202.19052 341.98126L202.19052 340.96564L207.75302 340.96564L207.75302 341.79376Q206.94052 342.66876 206.12802 344.1219Q205.33115 345.5594 204.89365 347.09064Q204.56552 348.16876 204.4874 349.45L203.39365 349.45Q203.40927 348.4344 203.78427 346.9969Q204.1749 345.5594 204.87802 344.23126Q205.59677 342.90314 206.40927 341.98126L202.19052 341.98126ZM209.28427 347.46564L210.2999 347.3719Q210.4249 348.09064 210.78427 348.41876Q211.15927 348.73126 211.72177 348.73126Q212.20615 348.73126 212.56552 348.5125Q212.94052 348.27814 213.1749 347.91876Q213.40927 347.54376 213.56552 346.91876Q213.72177 346.27814 213.72177 345.6219Q213.72177 345.54376 213.72177 345.40314Q213.40927 345.90314 212.8624 346.23126Q212.31552 346.54376 211.6749 346.54376Q210.59677 346.54376 209.8624 345.77814Q209.12802 344.9969 209.12802 343.73126Q209.12802 342.41876 209.89365 341.6219Q210.6749 340.825 211.83115 340.825Q212.65927 340.825 213.34677 341.27814Q214.0499 341.73126 214.40927 342.575Q214.76865 343.40314 214.76865 344.98126Q214.76865 346.6219 214.40927 347.60626Q214.06552 348.575 213.34677 349.09064Q212.64365 349.59064 211.70615 349.59064Q210.69052 349.59064 210.0499 349.04376Q209.40927 348.48126 209.28427 347.46564ZM213.59677 343.66876Q213.59677 342.7625 213.1124 342.23126Q212.64365 341.7 211.95615 341.7Q211.25302 341.7 210.72177 342.27814Q210.20615 342.84064 210.20615 343.7625Q210.20615 344.575 210.70615 345.09064Q211.20615 345.60626 211.9249 345.60626Q212.65927 345.60626 213.12802 345.09064Q213.59677 344.575 213.59677 343.66876Z" fill-rule="nonzero"/><path fill="#000000" d="M239.34557 342.96564L238.29869 343.04376Q238.15807 342.41876 237.90807 342.1375Q237.47057 341.6844 236.84557 341.6844Q236.34557 341.6844 235.95494 341.96564Q235.47057 342.34064 235.17369 343.04376Q234.89244 343.73126 234.87682 345.0125Q235.25182 344.4344 235.79869 344.15314Q236.36119 343.8719 236.97057 343.8719Q238.01744 343.8719 238.75182 344.65314Q239.50182 345.4344 239.50182 346.65314Q239.50182 347.46564 239.14244 348.16876Q238.79869 348.85626 238.18932 349.23126Q237.57994 349.59064 236.81432 349.59064Q235.48619 349.59064 234.65807 348.6219Q233.82994 347.65314 233.82994 345.4344Q233.82994 342.9344 234.75182 341.8094Q235.54869 340.825 236.90807 340.825Q237.92369 340.825 238.56432 341.40314Q239.22057 341.96564 239.34557 342.96564ZM235.04869 346.66876Q235.04869 347.21564 235.26744 347.71564Q235.50182 348.2 235.90807 348.46564Q236.32994 348.73126 236.79869 348.73126Q237.45494 348.73126 237.93932 348.2Q238.42369 347.65314 238.42369 346.73126Q238.42369 345.84064 237.93932 345.325Q237.47057 344.8094 236.75182 344.8094Q236.03307 344.8094 235.53307 345.325Q235.04869 345.84064 235.04869 346.66876ZM240.87682 345.21564Q240.87682 343.6844 241.18932 342.7625Q241.50182 341.825 242.11119 341.325Q242.73619 340.825 243.67369 340.825Q244.36119 340.825 244.87682 341.10626Q245.40807 341.3875 245.75182 341.91876Q246.09557 342.4344 246.28307 343.1844Q246.47057 343.9344 246.47057 345.21564Q246.47057 346.73126 246.15807 347.65314Q245.86119 348.575 245.23619 349.09064Q244.62682 349.59064 243.67369 349.59064Q242.43932 349.59064 241.72057 348.7Q240.87682 347.6375 240.87682 345.21564ZM241.95494 345.21564Q241.95494 347.325 242.45494 348.02814Q242.95494 348.73126 243.67369 348.73126Q244.40807 348.73126 244.89244 348.02814Q245.39244 347.325 245.39244 345.21564Q245.39244 343.09064 244.89244 342.40314Q244.40807 341.7 243.65807 341.7Q242.93932 341.7 242.50182 342.3094Q241.95494 343.09064 241.95494 345.21564ZM247.75182 346.8719L247.75182 345.8094L251.00182 345.8094L251.00182 346.8719L247.75182 346.8719ZM257.34558 342.96564L256.2987 343.04376Q256.15808 342.41876 255.90807 342.1375Q255.47057 341.6844 254.84557 341.6844Q254.34557 341.6844 253.95494 341.96564Q253.47057 342.34064 253.17369 343.04376Q252.89244 343.73126 252.87682 345.0125Q253.25182 344.4344 253.79869 344.15314Q254.36119 343.8719 254.97057 343.8719Q256.01746 343.8719 256.75183 344.65314Q257.50183 345.4344 257.50183 346.65314Q257.50183 347.46564 257.14246 348.16876Q256.7987 348.85626 256.18933 349.23126Q255.57994 349.59064 254.81432 349.59064Q253.48619 349.59064 252.65807 348.6219Q251.82994 347.65314 251.82994 345.4344Q251.82994 342.9344 252.75182 341.8094Q253.54869 340.825 254.90807 340.825Q255.92369 340.825 256.56433 341.40314Q257.22058 341.96564 257.34558 342.96564ZM253.04869 346.66876Q253.04869 347.21564 253.26744 347.71564Q253.50182 348.2 253.90807 348.46564Q254.32994 348.73126 254.79869 348.73126Q255.45494 348.73126 255.93932 348.2Q256.4237 347.65314 256.4237 346.73126Q256.4237 345.84064 255.93932 345.325Q255.47057 344.8094 254.75182 344.8094Q254.03307 344.8094 253.53307 345.325Q253.04869 345.84064 253.04869 346.66876ZM259.03308 347.46564L260.0487 347.3719Q260.1737 348.09064 260.53308 348.41876Q260.90808 348.73126 261.47058 348.73126Q261.95496 348.73126 262.31433 348.5125Q262.68933 348.27814 262.9237 347.91876Q263.15808 347.54376 263.31433 346.91876Q263.47058 346.27814 263.47058 345.6219Q263.47058 345.54376 263.47058 345.40314Q263.15808 345.90314 262.6112 346.23126Q262.06433 346.54376 261.4237 346.54376Q260.34558 346.54376 259.6112 345.77814Q258.87683 344.9969 258.87683 343.73126Q258.87683 342.41876 259.64246 341.6219Q260.4237 340.825 261.57996 340.825Q262.40808 340.825 263.09558 341.27814Q263.7987 341.73126 264.15808 342.575Q264.51746 343.40314 264.51746 344.98126Q264.51746 346.6219 264.15808 347.60626Q263.81433 348.575 263.09558 349.09064Q262.39246 349.59064 261.45496 349.59064Q260.43933 349.59064 259.7987 349.04376Q259.15808 348.48126 259.03308 347.46564ZM263.34558 343.66876Q263.34558 342.7625 262.8612 342.23126Q262.39246 341.7 261.70496 341.7Q261.00183 341.7 260.47058 342.27814Q259.95496 342.84064 259.95496 343.7625Q259.95496 344.575 260.45496 345.09064Q260.95496 345.60626 261.6737 345.60626Q262.40808 345.60626 262.87683 345.09064Q263.34558 344.575 263.34558 343.66876Z" fill-rule="nonzero"/><path fill="#000000" d="M283.6256 347.2L284.735 347.10626Q284.86 347.91876 285.2975 348.325Q285.7506 348.73126 286.39124 348.73126Q287.14124 348.73126 287.6725 348.15314Q288.20374 347.575 288.20374 346.6375Q288.20374 345.73126 287.6881 345.21564Q287.1881 344.6844 286.36 344.6844Q285.86 344.6844 285.4381 344.91876Q285.03186 345.15314 284.7975 345.5125L283.8131 345.3875L284.64124 340.98126L288.9225 340.98126L288.9225 341.98126L285.485 341.98126L285.03186 344.29376Q285.7975 343.7469 286.64124 343.7469Q287.76624 343.7469 288.53186 344.52814Q289.3131 345.3094 289.3131 346.54376Q289.3131 347.7 288.64124 348.5594Q287.8131 349.59064 286.39124 349.59064Q285.21936 349.59064 284.46936 348.9344Q283.735 348.27814 283.6256 347.2ZM290.6256 345.21564Q290.6256 343.6844 290.9381 342.7625Q291.2506 341.825 291.86 341.325Q292.485 340.825 293.4225 340.825Q294.11 340.825 294.6256 341.10626Q295.15686 341.3875 295.5006 341.91876Q295.84436 342.4344 296.03186 343.1844Q296.21936 343.9344 296.21936 345.21564Q296.21936 346.73126 295.90686 347.65314Q295.61 348.575 294.985 349.09064Q294.3756 349.59064 293.4225 349.59064Q292.1881 349.59064 291.46936 348.7Q290.6256 347.6375 290.6256 345.21564ZM291.70374 345.21564Q291.70374 347.325 292.20374 348.02814Q292.70374 348.73126 293.4225 348.73126Q294.15686 348.73126 294.64124 348.02814Q295.14124 347.325 295.14124 345.21564Q295.14124 343.09064 294.64124 342.40314Q294.15686 341.7 293.40686 341.7Q292.6881 341.7 292.2506 342.3094Q291.70374 343.09064 291.70374 345.21564ZM297.5006 346.8719L297.5006 345.8094L300.7506 345.8094L300.7506 346.8719L297.5006 346.8719ZM301.6256 347.2L302.735 347.10626Q302.86 347.91876 303.2975 348.325Q303.7506 348.73126 304.39124 348.73126Q305.14124 348.73126 305.6725 348.15314Q306.20374 347.575 306.20374 346.6375Q306.20374 345.73126 305.6881 345.21564Q305.1881 344.6844 304.36 344.6844Q303.86 344.6844 303.4381 344.91876Q303.03186 345.15314 302.7975 345.5125L301.8131 345.3875L302.64124 340.98126L306.9225 340.98126L306.9225 341.98126L303.485 341.98126L303.03186 344.29376Q303.7975 343.7469 304.64124 343.7469Q305.76624 343.7469 306.53186 344.52814Q307.3131 345.3094 307.3131 346.54376Q307.3131 347.7 306.64124 348.5594Q305.8131 349.59064 304.39124 349.59064Q303.21936 349.59064 302.46936 348.9344Q301.735 348.27814 301.6256 347.2ZM308.78186 347.46564L309.7975 347.3719Q309.9225 348.09064 310.28186 348.41876Q310.65686 348.73126 311.21936 348.73126Q311.70374 348.73126 312.0631 348.5125Q312.4381 348.27814 312.6725 347.91876Q312.90686 347.54376 313.0631 346.91876Q313.21936 346.27814 313.21936 345.6219Q313.21936 345.54376 313.21936 345.40314Q312.90686 345.90314 312.36 346.23126Q311.8131 346.54376 311.1725 346.54376Q310.09436 346.54376 309.36 345.77814Q308.6256 344.9969 308.6256 343.73126Q308.6256 342.41876 309.39124 341.6219Q310.1725 340.825 311.32874 340.825Q312.15686 340.825 312.84436 341.27814Q313.5475 341.73126 313.90686 342.575Q314.26624 343.40314 314.26624 344.98126Q314.26624 346.6219 313.90686 347.60626Q313.5631 348.575 312.84436 349.09064Q312.14124 349.59064 311.20374 349.59064Q310.1881 349.59064 309.5475 349.04376Q308.90686 348.48126 308.78186 347.46564ZM313.09436 343.66876Q313.09436 342.7625 312.61 342.23126Q312.14124 341.7 311.45374 341.7Q310.7506 341.7 310.21936 342.27814Q309.70374 342.84064 309.70374 343.7625Q309.70374 344.575 310.20374 345.09064Q310.70374 345.60626 311.4225 345.60626Q312.15686 345.60626 312.6256 345.09064Q313.09436 344.575 313.09436 343.66876Z" fill-rule="nonzero"/><path fill="#000000" d="M336.7494 349.45L336.7494 347.3875L333.03064 347.3875L333.03064 346.41876L336.9525 340.85626L337.8119 340.85626L337.8119 346.41876L338.96814 346.41876L338.96814 347.3875L337.8119 347.3875L337.8119 349.45L336.7494 349.45ZM336.7494 346.41876L336.7494 342.5594L334.0619 346.41876L336.7494 346.41876ZM340.3744 345.21564Q340.3744 343.6844 340.6869 342.7625Q340.9994 341.825 341.60876 341.325Q342.23376 340.825 343.17126 340.825Q343.85876 340.825 344.3744 341.10626Q344.90564 341.3875 345.2494 341.91876Q345.59314 342.4344 345.78064 343.1844Q345.96814 343.9344 345.96814 345.21564Q345.96814 346.73126 345.65564 347.65314Q345.35876 348.575 344.73376 349.09064Q344.1244 349.59064 343.17126 349.59064Q341.9369 349.59064 341.21814 348.7Q340.3744 347.6375 340.3744 345.21564ZM341.4525 345.21564Q341.4525 347.325 341.9525 348.02814Q342.4525 348.73126 343.17126 348.73126Q343.90564 348.73126 344.39 348.02814Q344.89 347.325 344.89 345.21564Q344.89 343.09064 344.39 342.40314Q343.90564 341.7 343.15564 341.7Q342.4369 341.7 341.9994 342.3094Q341.4525 343.09064 341.4525 345.21564ZM347.2494 346.8719L347.2494 345.8094L350.4994 345.8094L350.4994 346.8719L347.2494 346.8719ZM354.7494 349.45L354.7494 347.3875L351.03064 347.3875L351.03064 346.41876L354.9525 340.85626L355.8119 340.85626L355.8119 346.41876L356.96814 346.41876L356.96814 347.3875L355.8119 347.3875L355.8119 349.45L354.7494 349.45ZM354.7494 346.41876L354.7494 342.5594L352.0619 346.41876L354.7494 346.41876ZM358.53064 347.46564L359.54626 347.3719Q359.67126 348.09064 360.03064 348.41876Q360.40564 348.73126 360.96814 348.73126Q361.4525 348.73126 361.8119 348.5125Q362.1869 348.27814 362.42126 347.91876Q362.65564 347.54376 362.8119 346.91876Q362.96814 346.27814 362.96814 345.6219Q362.96814 345.54376 362.96814 345.40314Q362.65564 345.90314 362.10876 346.23126Q361.5619 346.54376 360.92126 346.54376Q359.84314 346.54376 359.10876 345.77814Q358.3744 344.9969 358.3744 343.73126Q358.3744 342.41876 359.14 341.6219Q359.92126 340.825 361.0775 340.825Q361.90564 340.825 362.59314 341.27814Q363.29626 341.73126 363.65564 342.575Q364.015 343.40314 364.015 344.98126Q364.015 346.6219 363.65564 347.60626Q363.3119 348.575 362.59314 349.09064Q361.89 349.59064 360.9525 349.59064Q359.9369 349.59064 359.29626 349.04376Q358.65564 348.48126 358.53064 347.46564ZM362.84314 343.66876Q362.84314 342.7625 362.35876 342.23126Q361.89 341.7 361.2025 341.7Q360.4994 341.7 359.96814 342.27814Q359.4525 342.84064 359.4525 343.7625Q359.4525 344.575 359.9525 345.09064Q360.4525 345.60626 361.17126 345.60626Q361.90564 345.60626 362.3744 345.09064Q362.84314 344.575 362.84314 343.66876Z" fill-rule="nonzero"/><path fill="#000000" d="M383.1232 347.1844L384.1857 347.04376Q384.35757 347.9344 384.79507 348.34064Q385.23257 348.73126 385.85757 348.73126Q386.60757 348.73126 387.1232 348.21564Q387.63882 347.7 387.63882 346.9344Q387.63882 346.21564 387.15445 345.7469Q386.6857 345.2625 385.95132 345.2625Q385.65445 345.2625 385.20132 345.3875L385.32632 344.45Q385.4357 344.46564 385.4982 344.46564Q386.17007 344.46564 386.70132 344.1219Q387.2482 343.7625 387.2482 343.02814Q387.2482 342.45 386.85757 342.075Q386.46695 341.6844 385.84195 341.6844Q385.23257 341.6844 384.8107 342.075Q384.40445 342.46564 384.29507 343.23126L383.23257 343.04376Q383.42007 341.9969 384.10757 341.41876Q384.79507 340.825 385.8107 340.825Q386.51382 340.825 387.10757 341.1375Q387.70132 341.4344 388.01382 341.95Q388.32632 342.46564 388.32632 343.0594Q388.32632 343.60626 388.02945 344.075Q387.73257 344.52814 387.15445 344.79376Q387.90445 344.96564 388.32632 345.52814Q388.7482 346.075 388.7482 346.91876Q388.7482 348.04376 387.92007 348.825Q387.10757 349.60626 385.85757 349.60626Q384.73257 349.60626 383.98257 348.9344Q383.23257 348.2469 383.1232 347.1844ZM390.1232 345.21564Q390.1232 343.6844 390.4357 342.7625Q390.7482 341.825 391.35757 341.325Q391.98257 340.825 392.92007 340.825Q393.60757 340.825 394.1232 341.10626Q394.65445 341.3875 394.9982 341.91876Q395.34195 342.4344 395.52945 343.1844Q395.71695 343.9344 395.71695 345.21564Q395.71695 346.73126 395.40445 347.65314Q395.10757 348.575 394.48257 349.09064Q393.8732 349.59064 392.92007 349.59064Q391.6857 349.59064 390.96695 348.7Q390.1232 347.6375 390.1232 345.21564ZM391.20132 345.21564Q391.20132 347.325 391.70132 348.02814Q392.20132 348.73126 392.92007 348.73126Q393.65445 348.73126 394.13882 348.02814Q394.63882 347.325 394.63882 345.21564Q394.63882 343.09064 394.13882 342.40314Q393.65445 341.7 392.90445 341.7Q392.1857 341.7 391.7482 342.3094Q391.20132 343.09064 391.20132 345.21564ZM396.9982 346.8719L396.9982 345.8094L400.2482 345.8094L400.2482 346.8719L396.9982 346.8719ZM401.1232 347.1844L402.1857 347.04376Q402.35757 347.9344 402.79507 348.34064Q403.23257 348.73126 403.85757 348.73126Q404.60757 348.73126 405.1232 348.21564Q405.63882 347.7 405.63882 346.9344Q405.63882 346.21564 405.15445 345.7469Q404.6857 345.2625 403.95132 345.2625Q403.65445 345.2625 403.20132 345.3875L403.32632 344.45Q403.4357 344.46564 403.4982 344.46564Q404.17007 344.46564 404.70132 344.1219Q405.2482 343.7625 405.2482 343.02814Q405.2482 342.45 404.85757 342.075Q404.46695 341.6844 403.84195 341.6844Q403.23257 341.6844 402.8107 342.075Q402.40445 342.46564 402.29507 343.23126L401.23257 343.04376Q401.42007 341.9969 402.10757 341.41876Q402.79507 340.825 403.8107 340.825Q404.51382 340.825 405.10757 341.1375Q405.70132 341.4344 406.01382 341.95Q406.32632 342.46564 406.32632 343.0594Q406.32632 343.60626 406.02945 344.075Q405.73257 344.52814 405.15445 344.79376Q405.90445 344.96564 406.32632 345.52814Q406.7482 346.075 406.7482 346.91876Q406.7482 348.04376 405.92007 348.825Q405.10757 349.60626 403.85757 349.60626Q402.73257 349.60626 401.98257 348.9344Q401.23257 348.2469 401.1232 347.1844ZM408.27945 347.46564L409.29507 347.3719Q409.42007 348.09064 409.77945 348.41876Q410.15445 348.73126 410.71695 348.73126Q411.20132 348.73126 411.5607 348.5125Q411.9357 348.27814 412.17007 347.91876Q412.40445 347.54376 412.5607 346.91876Q412.71695 346.27814 412.71695 345.6219Q412.71695 345.54376 412.71695 345.40314Q412.40445 345.90314 411.85757 346.23126Q411.3107 346.54376 410.67007 346.54376Q409.59195 346.54376 408.85757 345.77814Q408.1232 344.9969 408.1232 343.73126Q408.1232 342.41876 408.88882 341.6219Q409.67007 340.825 410.82632 340.825Q411.65445 340.825 412.34195 341.27814Q413.04507 341.73126 413.40445 342.575Q413.76382 343.40314 413.76382 344.98126Q413.76382 346.6219 413.40445 347.60626Q413.0607 348.575 412.34195 349.09064Q411.63882 349.59064 410.70132 349.59064Q409.6857 349.59064 409.04507 349.04376Q408.40445 348.48126 408.27945 347.46564ZM412.59195 343.66876Q412.59195 342.7625 412.10757 342.23126Q411.63882 341.7 410.95132 341.7Q410.2482 341.7 409.71695 342.27814Q409.20132 342.84064 409.20132 343.7625Q409.20132 344.575 409.70132 345.09064Q410.20132 345.60626 410.92007 345.60626Q411.65445 345.60626 412.1232 345.09064Q412.59195 344.575 412.59195 343.66876Z" fill-rule="nonzero"/><path fill="#000000" d="M438.41885 348.4344L438.41885 349.45L432.73135 349.45Q432.73135 349.075 432.85635 348.71564Q433.0751 348.1375 433.54385 347.575Q434.02823 347.0125 434.93448 346.27814Q436.34073 345.1219 436.8251 344.45Q437.3251 343.77814 437.3251 343.1844Q437.3251 342.5594 436.87198 342.1375Q436.41885 341.7 435.7001 341.7Q434.93448 341.7 434.48135 342.15314Q434.02823 342.60626 434.0126 343.41876L432.93448 343.3094Q433.04385 342.09064 433.7626 341.46564Q434.49698 340.825 435.73135 340.825Q436.96573 340.825 437.68448 341.5125Q438.40323 342.2 438.40323 343.21564Q438.40323 343.73126 438.18448 344.23126Q437.98135 344.71564 437.48135 345.27814Q436.99698 345.825 435.87198 346.77814Q434.91885 347.575 434.6376 347.8719Q434.37198 348.15314 434.2001 348.4344L438.41885 348.4344ZM439.87198 345.21564Q439.87198 343.6844 440.18448 342.7625Q440.49698 341.825 441.10635 341.325Q441.73135 340.825 442.66885 340.825Q443.35635 340.825 443.87198 341.10626Q444.40323 341.3875 444.74698 341.91876Q445.09073 342.4344 445.27823 343.1844Q445.46573 343.9344 445.46573 345.21564Q445.46573 346.73126 445.15323 347.65314Q444.85635 348.575 444.23135 349.09064Q443.62198 349.59064 442.66885 349.59064Q441.43448 349.59064 440.71573 348.7Q439.87198 347.6375 439.87198 345.21564ZM440.9501 345.21564Q440.9501 347.325 441.4501 348.02814Q441.9501 348.73126 442.66885 348.73126Q443.40323 348.73126 443.8876 348.02814Q444.3876 347.325 444.3876 345.21564Q444.3876 343.09064 443.8876 342.40314Q443.40323 341.7 442.65323 341.7Q441.93448 341.7 441.49698 342.3094Q440.9501 343.09064 440.9501 345.21564ZM446.74698 346.8719L446.74698 345.8094L449.99698 345.8094L449.99698 346.8719L446.74698 346.8719ZM456.41885 348.4344L456.41885 349.45L450.73135 349.45Q450.73135 349.075 450.85635 348.71564Q451.0751 348.1375 451.54385 347.575Q452.02823 347.0125 452.93448 346.27814Q454.34073 345.1219 454.8251 344.45Q455.3251 343.77814 455.3251 343.1844Q455.3251 342.5594 454.87198 342.1375Q454.41885 341.7 453.7001 341.7Q452.93448 341.7 452.48135 342.15314Q452.02823 342.60626 452.0126 343.41876L450.93448 343.3094Q451.04385 342.09064 451.7626 341.46564Q452.49698 340.825 453.73135 340.825Q454.96573 340.825 455.68448 341.5125Q456.40323 342.2 456.40323 343.21564Q456.40323 343.73126 456.18448 344.23126Q455.98135 344.71564 455.48135 345.27814Q454.99698 345.825 453.87198 346.77814Q452.91885 347.575 452.6376 347.8719Q452.37198 348.15314 452.2001 348.4344L456.41885 348.4344ZM458.02823 347.46564L459.04385 347.3719Q459.16885 348.09064 459.52823 348.41876Q459.90323 348.73126 460.46573 348.73126Q460.9501 348.73126 461.30948 348.5125Q461.68448 348.27814 461.91885 347.91876Q462.15323 347.54376 462.30948 346.91876Q462.46573 346.27814 462.46573 345.6219Q462.46573 345.54376 462.46573 345.40314Q462.15323 345.90314 461.60635 346.23126Q461.05948 346.54376 460.41885 346.54376Q459.34073 346.54376 458.60635 345.77814Q457.87198 344.9969 457.87198 343.73126Q457.87198 342.41876 458.6376 341.6219Q459.41885 340.825 460.5751 340.825Q461.40323 340.825 462.09073 341.27814Q462.79385 341.73126 463.15323 342.575Q463.5126 343.40314 463.5126 344.98126Q463.5126 346.6219 463.15323 347.60626Q462.80948 348.575 462.09073 349.09064Q461.3876 349.59064 460.4501 349.59064Q459.43448 349.59064 458.79385 349.04376Q458.15323 348.48126 458.02823 347.46564ZM462.34073 343.66876Q462.34073 342.7625 461.85635 342.23126Q461.3876 341.7 460.7001 341.7Q459.99698 341.7 459.46573 342.27814Q458.9501 342.84064 458.9501 343.7625Q458.9501 344.575 459.4501 345.09064Q459.9501 345.60626 460.66885 345.60626Q461.40323 345.60626 461.87198 345.09064Q462.34073 344.575 462.34073 343.66876Z" fill-rule="nonzero"/><path fill="#000000" d="M486.5895 349.45L485.54263 349.45L485.54263 342.73126Q485.152 343.09064 484.527 343.46564Q483.91763 343.825 483.43326 343.9969L483.43326 342.98126Q484.30826 342.5594 484.9645 341.98126Q485.63638 341.3875 485.91763 340.825L486.5895 340.825L486.5895 349.45ZM489.62076 345.21564Q489.62076 343.6844 489.93326 342.7625Q490.24576 341.825 490.85513 341.325Q491.48013 340.825 492.41763 340.825Q493.10513 340.825 493.62076 341.10626Q494.152 341.3875 494.49576 341.91876Q494.8395 342.4344 495.027 343.1844Q495.2145 343.9344 495.2145 345.21564Q495.2145 346.73126 494.902 347.65314Q494.60513 348.575 493.98013 349.09064Q493.37076 349.59064 492.41763 349.59064Q491.18326 349.59064 490.4645 348.7Q489.62076 347.6375 489.62076 345.21564ZM490.69888 345.21564Q490.69888 347.325 491.19888 348.02814Q491.69888 348.73126 492.41763 348.73126Q493.152 348.73126 493.63638 348.02814Q494.13638 347.325 494.13638 345.21564Q494.13638 343.09064 493.63638 342.40314Q493.152 341.7 492.402 341.7Q491.68326 341.7 491.24576 342.3094Q490.69888 343.09064 490.69888 345.21564ZM496.49576 346.8719L496.49576 345.8094L499.74576 345.8094L499.74576 346.8719L496.49576 346.8719ZM504.5895 349.45L503.54263 349.45L503.54263 342.73126Q503.152 343.09064 502.527 343.46564Q501.91763 343.825 501.43326 343.9969L501.43326 342.98126Q502.30826 342.5594 502.9645 341.98126Q503.63638 341.3875 503.91763 340.825L504.5895 340.825L504.5895 349.45ZM507.777 347.46564L508.79263 347.3719Q508.91763 348.09064 509.277 348.41876Q509.652 348.73126 510.2145 348.73126Q510.69888 348.73126 511.05826 348.5125Q511.43326 348.27814 511.66763 347.91876Q511.902 347.54376 512.0582 346.91876Q512.2145 346.27814 512.2145 345.6219Q512.2145 345.54376 512.2145 345.40314Q511.902 345.90314 511.35513 346.23126Q510.80826 346.54376 510.16763 346.54376Q509.0895 346.54376 508.35513 345.77814Q507.62076 344.9969 507.62076 343.73126Q507.62076 342.41876 508.38638 341.6219Q509.16763 340.825 510.32388 340.825Q511.152 340.825 511.8395 341.27814Q512.5426 341.73126 512.902 342.575Q513.26135 343.40314 513.26135 344.98126Q513.26135 346.6219 512.902 347.60626Q512.5582 348.575 511.8395 349.09064Q511.13638 349.59064 510.19888 349.59064Q509.18326 349.59064 508.54263 349.04376Q507.902 348.48126 507.777 347.46564ZM512.0895 343.66876Q512.0895 342.7625 511.60513 342.23126Q511.13638 341.7 510.44888 341.7Q509.74576 341.7 509.2145 342.27814Q508.69888 342.84064 508.69888 343.7625Q508.69888 344.575 509.19888 345.09064Q509.69888 345.60626 510.41763 345.60626Q511.152 345.60626 511.62076 345.09064Q512.0895 344.575 512.0895 343.66876Z" fill-rule="nonzero"/><path fill="#000000" d="M539.36957 345.21564Q539.36957 343.6844 539.68207 342.7625Q539.99457 341.825 540.60394 341.325Q541.22894 340.825 542.16644 340.825Q542.85394 340.825 543.36957 341.10626Q543.9008 341.3875 544.24457 341.91876Q544.5883 342.4344 544.7758 343.1844Q544.9633 343.9344 544.9633 345.21564Q544.9633 346.73126 544.6508 347.65314Q544.35394 348.575 543.72894 349.09064Q543.11957 349.59064 542.16644 349.59064Q540.93207 349.59064 540.2133 348.7Q539.36957 347.6375 539.36957 345.21564ZM540.4477 345.21564Q540.4477 347.325 540.9477 348.02814Q541.4477 348.73126 542.16644 348.73126Q542.9008 348.73126 543.3852 348.02814Q543.8852 347.325 543.8852 345.21564Q543.8852 343.09064 543.3852 342.40314Q542.9008 341.7 542.1508 341.7Q541.43207 341.7 540.99457 342.3094Q540.4477 343.09064 540.4477 345.21564ZM546.24457 346.8719L546.24457 345.8094L549.49457 345.8094L549.49457 346.8719L546.24457 346.8719ZM550.5258 347.46564L551.54144 347.3719Q551.66644 348.09064 552.0258 348.41876Q552.4008 348.73126 552.9633 348.73126Q553.4477 348.73126 553.80707 348.5125Q554.18207 348.27814 554.41644 347.91876Q554.6508 347.54376 554.80707 346.91876Q554.9633 346.27814 554.9633 345.6219Q554.9633 345.54376 554.9633 345.40314Q554.6508 345.90314 554.10394 346.23126Q553.55707 346.54376 552.91644 346.54376Q551.8383 346.54376 551.10394 345.77814Q550.36957 344.9969 550.36957 343.73126Q550.36957 342.41876 551.1352 341.6219Q551.91644 340.825 553.0727 340.825Q553.9008 340.825 554.5883 341.27814Q555.29144 341.73126 555.6508 342.575Q556.0102 343.40314 556.0102 344.98126Q556.0102 346.6219 555.6508 347.60626Q555.30707 348.575 554.5883 349.09064Q553.8852 349.59064 552.9477 349.59064Q551.93207 349.59064 551.29144 349.04376Q550.6508 348.48126 550.5258 347.46564ZM554.8383 343.66876Q554.8383 342.7625 554.35394 342.23126Q553.8852 341.7 553.1977 341.7Q552.49457 341.7 551.9633 342.27814Q551.4477 342.84064 551.4477 343.7625Q551.4477 344.575 551.9477 345.09064Q552.4477 345.60626 553.16644 345.60626Q553.9008 345.60626 554.36957 345.09064Q554.8383 344.575 554.8383 343.66876Z" fill-rule="nonzero"/><path fill="#4285f4" d="M220.0 20.55C220.0 19.997715 220.44771 19.55 221.0 19.55L231.0 19.55C231.55229 19.55 232.0 19.997715 232.0 20.55L232.0 30.55C232.0 31.102285 231.55229 31.55 231.0 31.55L221.0 31.55C220.44771 31.55 220.0 31.102285 220.0 30.55Z" fill-rule="nonzero"/><path fill="#1a1a1a" d="M240.9375 29.55L240.9375 20.95625L244.75 20.95625Q245.90625 20.95625 246.5 21.190624Q247.09375 21.425 247.45312 22.01875Q247.8125 22.596874 247.8125 23.3Q247.8125 24.221874 247.21875 24.846874Q246.625 25.471874 245.39062 25.64375Q245.84375 25.8625 246.07812 26.065624Q246.57812 26.51875 247.01562 27.20625L248.51562 29.55L247.07812 29.55L245.95312 27.76875Q245.45312 26.9875 245.125 26.58125Q244.8125 26.175 244.54688 26.01875Q244.29688 25.846874 244.03125 25.76875Q243.84375 25.7375 243.40625 25.7375L242.07812 25.7375L242.07812 29.55L240.9375 29.55ZM242.07812 24.753124L244.53125 24.753124Q245.29688 24.753124 245.73438 24.596874Q246.1875 24.425 246.40625 24.08125Q246.64062 23.721874 246.64062 23.3Q246.64062 22.690624 246.1875 22.3Q245.75 21.909374 244.79688 21.909374L242.07812 21.909374L242.07812 24.753124ZM255.5625 20.95625L256.70312 20.95625L256.70312 25.925Q256.70312 27.221874 256.40625 27.9875Q256.10938 28.7375 255.34375 29.221874Q254.57812 29.690624 253.34375 29.690624Q252.14062 29.690624 251.35938 29.284374Q250.59375 28.8625 250.26562 28.08125Q249.9375 27.284374 249.9375 25.925L249.9375 20.95625L251.07812 20.95625L251.07812 25.909374Q251.07812 27.034374 251.28125 27.565624Q251.5 28.096874 252.0 28.39375Q252.51562 28.675 253.25 28.675Q254.5 28.675 255.03125 28.1125Q255.5625 27.534374 255.5625 25.909374L255.5625 20.95625ZM263.8125 32.08125Q262.9375 30.971874 262.32812 29.503124Q261.73438 28.01875 261.73438 26.440624Q261.73438 25.05 262.17188 23.76875Q262.70312 22.284374 263.8125 20.815624L264.5625 20.815624Q263.85938 22.034374 263.625 22.55Q263.26562 23.3625 263.0625 24.2375Q262.8125 25.33125 262.8125 26.440624Q262.8125 29.26875 264.5625 32.08125L263.8125 32.08125ZM265.70312 23.01875Q265.70312 22.096874 266.15625 21.45625Q266.625 20.815624 267.5 20.815624Q268.3125 20.815624 268.84375 21.39375Q269.375 21.971874 269.375 23.08125Q269.375 24.175 268.82812 24.76875Q268.29688 25.346874 267.51562 25.346874Q266.73438 25.346874 266.21875 24.76875Q265.70312 24.190624 265.70312 23.01875ZM267.53125 21.534374Q267.14062 21.534374 266.875 21.878124Q266.625 22.221874 266.625 23.128124Q266.625 23.95625 266.875 24.3Q267.14062 24.628124 267.53125 24.628124Q267.9375 24.628124 268.1875 24.284374Q268.45312 23.940624 268.45312 23.05Q268.45312 22.20625 268.1875 21.878124Q267.92188 21.534374 267.53125 21.534374ZM267.53125 29.8625L272.23438 20.815624L273.09375 20.815624L268.40625 29.8625L267.53125 29.8625ZM271.25 27.534374Q271.25 26.6125 271.70312 25.971874Q272.17188 25.33125 273.0625 25.33125Q273.875 25.33125 274.40625 25.909374Q274.9375 26.471874 274.9375 27.596874Q274.9375 28.690624 274.39062 29.284374Q273.85938 29.8625 273.0625 29.8625Q272.29688 29.8625 271.76562 29.284374Q271.25 28.70625 271.25 27.534374ZM273.09375 26.05Q272.6875 26.05 272.42188 26.39375Q272.17188 26.7375 272.17188 27.64375Q272.17188 28.45625 272.4375 28.8Q272.70312 29.14375 273.09375 29.14375Q273.48438 29.14375 273.75 28.8Q274.01562 28.45625 274.01562 27.55Q274.01562 26.721874 273.75 26.39375Q273.48438 26.05 273.09375 26.05ZM277.48438 32.08125L276.73438 32.08125Q278.48438 29.26875 278.48438 26.440624Q278.48438 25.346874 278.23438 24.253124Q278.03125 23.378124 277.67188 22.565624Q277.4375 22.05 276.73438 20.815624L277.48438 20.815624Q278.57812 22.284374 279.10938 23.76875Q279.5625 25.05 279.5625 26.440624Q279.5625 28.01875 278.95312 29.503124Q278.34375 30.971874 277.48438 32.08125Z" fill-rule="nonzero"/><path fill="#ea4335" d="M296.0 20.55C296.0 19.997715 296.44772 19.55 297.0 19.55L307.0 19.55C307.55228 19.55 308.0 19.997715 308.0 20.55L308.0 30.55C308.0 31.102285 307.55228 31.55 307.0 31.55L297.0 31.55C296.44772 31.55 296.0 31.102285 296.0 30.55Z" fill-rule="nonzero"/><path fill="#1a1a1a" d="M315.98438 29.55L319.28125 20.95625L320.5 20.95625L324.01562 29.55L322.73438 29.55L321.71875 26.940624L318.14062 26.940624L317.1875 29.55L315.98438 29.55ZM318.46875 26.01875L321.375 26.01875L320.48438 23.64375Q320.0625 22.565624 319.875 21.8625Q319.70312 22.690624 319.40625 23.503124L318.46875 26.01875ZM324.92188 29.55L324.92188 20.95625L327.89062 20.95625Q328.89062 20.95625 329.42188 21.08125Q330.15625 21.253124 330.67188 21.690624Q331.35938 22.26875 331.6875 23.175Q332.03125 24.065624 332.03125 25.20625Q332.03125 26.190624 331.79688 26.940624Q331.57812 27.690624 331.21875 28.190624Q330.85938 28.690624 330.42188 28.971874Q330.0 29.253124 329.40625 29.409374Q328.8125 29.55 328.03125 29.55L324.92188 29.55ZM326.0625 28.534374L327.89062 28.534374Q328.75 28.534374 329.23438 28.378124Q329.71875 28.221874 330.0 27.925Q330.40625 27.534374 330.625 26.846874Q330.85938 26.159374 330.85938 25.190624Q330.85938 23.846874 330.40625 23.128124Q329.96875 22.39375 329.34375 22.14375Q328.875 21.971874 327.875 21.971874L326.0625 21.971874L326.0625 28.534374ZM336.34375 29.55L336.34375 25.909374L333.03125 20.95625L334.42188 20.95625L336.10938 23.55Q336.57812 24.26875 336.98438 25.003124Q337.375 24.33125 337.92188 23.4875L339.59375 20.95625L340.90625 20.95625L337.48438 25.909374L337.48438 29.55L336.34375 29.55ZM341.92188 29.55L341.92188 20.95625L345.17188 20.95625Q346.01562 20.95625 346.46875 21.034374Q347.10938 21.14375 347.53125 21.440624Q347.96875 21.7375 348.21875 22.26875Q348.48438 22.8 348.48438 23.440624Q348.48438 24.534374 347.78125 25.3Q347.09375 26.05 345.26562 26.05L343.0625 26.05L343.0625 29.55L341.92188 29.55ZM343.0625 25.05L345.28125 25.05Q346.39062 25.05 346.84375 24.64375Q347.3125 24.221874 347.3125 23.471874Q347.3125 22.940624 347.03125 22.565624Q346.76562 22.175 346.32812 22.05Q346.03125 21.971874 345.26562 21.971874L343.0625 21.971874L343.0625 25.05ZM355.5625 20.95625L356.70312 20.95625L356.70312 25.925Q356.70312 27.221874 356.40625 27.9875Q356.10938 28.7375 355.34375 29.221874Q354.57812 29.690624 353.34375 29.690624Q352.14062 29.690624 351.35938 29.284374Q350.59375 28.8625 350.26562 28.08125Q349.9375 27.284374 349.9375 25.925L349.9375 20.95625L351.07812 20.95625L351.07812 25.909374Q351.07812 27.034374 351.28125 27.565624Q351.5 28.096874 352.0 28.39375Q352.51562 28.675 353.25 28.675Q354.5 28.675 355.03125 28.1125Q355.5625 27.534374 355.5625 25.909374L355.5625 20.95625ZM363.8125 32.08125Q362.9375 30.971874 362.32812 29.503124Q361.73438 28.01875 361.73438 26.440624Q361.73438 25.05 362.17188 23.76875Q362.70312 22.284374 363.8125 20.815624L364.5625 20.815624Q363.85938 22.034374 363.625 22.55Q363.26562 23.3625 363.0625 24.2375Q362.8125 25.33125 362.8125 26.440624Q362.8125 29.26875 364.5625 32.08125L363.8125 32.08125ZM365.70312 23.01875Q365.70312 22.096874 366.15625 21.45625Q366.625 20.815624 367.5 20.815624Q368.3125 20.815624 368.84375 21.39375Q369.375 21.971874 369.375 23.08125Q369.375 24.175 368.82812 24.76875Q368.29688 25.346874 367.51562 25.346874Q366.73438 25.346874 366.21875 24.76875Q365.70312 24.190624 365.70312 23.01875ZM367.53125 21.534374Q367.14062 21.534374 366.875 21.878124Q366.625 22.221874 366.625 23.128124Q366.625 23.95625 366.875 24.3Q367.14062 24.628124 367.53125 24.628124Q367.9375 24.628124 368.1875 24.284374Q368.45312 23.940624 368.45312 23.05Q368.45312 22.20625 368.1875 21.878124Q367.92188 21.534374 367.53125 21.534374ZM367.53125 29.8625L372.23438 20.815624L373.09375 20.815624L368.40625 29.8625L367.53125 29.8625ZM371.25 27.534374Q371.25 26.6125 371.70312 25.971874Q372.17188 25.33125 373.0625 25.33125Q373.875 25.33125 374.40625 25.909374Q374.9375 26.471874 374.9375 27.596874Q374.9375 28.690624 374.39062 29.284374Q373.85938 29.8625 373.0625 29.8625Q372.29688 29.8625 371.76562 29.284374Q371.25 28.70625 371.25 27.534374ZM373.09375 26.05Q372.6875 26.05 372.42188 26.39375Q372.17188 26.7375 372.17188 27.64375Q372.17188 28.45625 372.4375 28.8Q372.70312 29.14375 373.09375 29.14375Q373.48438 29.14375 373.75 28.8Q374.01562 28.45625 374.01562 27.55Q374.01562 26.721874 373.75 26.39375Q373.48438 26.05 373.09375 26.05ZM377.48438 32.08125L376.73438 32.08125Q378.48438 29.26875 378.48438 26.440624Q378.48438 25.346874 378.23438 24.253124Q378.03125 23.378124 377.67188 22.565624Q377.4375 22.05 376.73438 20.815624L377.48438 20.815624Q378.57812 22.284374 379.10938 23.76875Q379.5625 25.05 379.5625 26.440624Q379.5625 28.01875 378.95312 29.503124Q378.34375 30.971874 377.48438 32.08125Z" fill-rule="nonzero"/></svg>